<?xml version="1.0" encoding="utf-8"?>
<!-- Generator: Adobe Illustrator 14.0.0, SVG Export Plug-In . SVG Version: 6.00 Build 43363)  -->
<!DOCTYPE svg PUBLIC "-//W3C//DTD SVG 1.1//EN" "http://www.w3.org/Graphics/SVG/1.1/DTD/svg11.dtd">
<svg version="1.1" id="Layer_1" xmlns="http://www.w3.org/2000/svg" xmlns:xlink="http://www.w3.org/1999/xlink" x="0px" y="0px"
	 width="1533.333px" height="1523px" viewBox="0 0 1533.333 1523" enable-background="new 0 0 1533.333 1523" xml:space="preserve">
<g>
	<path fill="#77787C" d="M693.964,599.991H389.569H85.175c-16.02,0-29,12.99-29,29v374c0,16.02,12.98,29,29,29h304.395h304.395
		c16.02,0,29-12.98,29-29v-374C722.964,612.981,709.983,599.991,693.964,599.991z M376.419,1015.015c0,1.68-1.362,3.041-3.042,3.041
		h-5.655c-1.68,0-3.042-1.361-3.042-3.041v-5.654c0-1.68,1.362-3.041,3.042-3.041h5.655c1.68,0,3.042,1.361,3.042,3.041V1015.015z
		 M376.419,979.343c0,1.68-1.362,3.041-3.042,3.041h-5.655c-1.68,0-3.042-1.361-3.042-3.041v-5.654c0-1.68,1.362-3.043,3.042-3.043
		h5.655c1.68,0,3.042,1.363,3.042,3.043V979.343z M376.419,943.669c0,1.682-1.362,3.043-3.042,3.043h-5.655
		c-1.68,0-3.042-1.361-3.042-3.043v-5.652c0-1.68,1.362-3.043,3.042-3.043h5.655c1.68,0,3.042,1.363,3.042,3.043V943.669z
		 M376.419,907.997c0,1.682-1.362,3.043-3.042,3.043h-5.655c-1.68,0-3.042-1.361-3.042-3.043v-5.652c0-1.68,1.362-3.043,3.042-3.043
		h5.655c1.68,0,3.042,1.363,3.042,3.043V907.997z M376.419,872.325c0,1.681-1.362,3.043-3.042,3.043h-5.655
		c-1.68,0-3.042-1.362-3.042-3.043v-5.653c0-1.68,1.362-3.042,3.042-3.042h5.655c1.68,0,3.042,1.362,3.042,3.042V872.325z
		 M376.419,836.653c0,1.681-1.362,3.042-3.042,3.042h-5.655c-1.68,0-3.042-1.361-3.042-3.042v-5.654c0-1.68,1.362-3.041,3.042-3.041
		h5.655c1.68,0,3.042,1.361,3.042,3.041V836.653z M376.419,800.981c0,1.68-1.362,3.042-3.042,3.042h-5.655
		c-1.68,0-3.042-1.362-3.042-3.042v-5.654c0-1.68,1.362-3.041,3.042-3.041h5.655c1.68,0,3.042,1.361,3.042,3.041V800.981z
		 M376.419,765.31c0,1.68-1.362,3.041-3.042,3.041h-5.655c-1.68,0-3.042-1.361-3.042-3.041v-5.654c0-1.68,1.362-3.042,3.042-3.042
		h5.655c1.68,0,3.042,1.362,3.042,3.042V765.31z M376.419,729.638c0,1.68-1.362,3.041-3.042,3.041h-5.655
		c-1.68,0-3.042-1.361-3.042-3.041v-5.654c0-1.68,1.362-3.043,3.042-3.043h5.655c1.68,0,3.042,1.363,3.042,3.043V729.638z
		 M376.419,693.965c0,1.681-1.362,3.042-3.042,3.042h-5.655c-1.68,0-3.042-1.361-3.042-3.042v-5.653c0-1.68,1.362-3.043,3.042-3.043
		h5.655c1.68,0,3.042,1.363,3.042,3.043V693.965z M376.419,658.293c0,1.681-1.362,3.042-3.042,3.042h-5.655
		c-1.68,0-3.042-1.361-3.042-3.042v-5.654c0-1.68,1.362-3.042,3.042-3.042h5.655c1.68,0,3.042,1.362,3.042,3.042V658.293z
		 M376.419,622.62c0,1.682-1.362,3.043-3.042,3.043h-5.655c-1.68,0-3.042-1.361-3.042-3.043v-5.653c0-1.68,1.362-3.042,3.042-3.042
		h5.655c1.68,0,3.042,1.362,3.042,3.042V622.62z M414.458,1015.015c0,1.68-1.362,3.041-3.042,3.041h-5.655
		c-1.68,0-3.042-1.361-3.042-3.041v-5.654c0-1.68,1.362-3.041,3.042-3.041h5.655c1.68,0,3.042,1.361,3.042,3.041V1015.015z
		 M414.458,979.343c0,1.68-1.362,3.041-3.042,3.041h-5.655c-1.68,0-3.042-1.361-3.042-3.041v-5.654c0-1.68,1.362-3.043,3.042-3.043
		h5.655c1.68,0,3.042,1.363,3.042,3.043V979.343z M414.458,943.669c0,1.682-1.362,3.043-3.042,3.043h-5.655
		c-1.68,0-3.042-1.361-3.042-3.043v-5.652c0-1.68,1.362-3.043,3.042-3.043h5.655c1.68,0,3.042,1.363,3.042,3.043V943.669z
		 M414.458,907.997c0,1.682-1.362,3.043-3.042,3.043h-5.655c-1.68,0-3.042-1.361-3.042-3.043v-5.652c0-1.68,1.362-3.043,3.042-3.043
		h5.655c1.68,0,3.042,1.363,3.042,3.043V907.997z M414.458,872.325c0,1.681-1.362,3.043-3.042,3.043h-5.655
		c-1.68,0-3.042-1.362-3.042-3.043v-5.653c0-1.68,1.362-3.042,3.042-3.042h5.655c1.68,0,3.042,1.362,3.042,3.042V872.325z
		 M414.458,836.653c0,1.681-1.362,3.042-3.042,3.042h-5.655c-1.68,0-3.042-1.361-3.042-3.042v-5.654c0-1.68,1.362-3.041,3.042-3.041
		h5.655c1.68,0,3.042,1.361,3.042,3.041V836.653z M414.458,800.981c0,1.68-1.362,3.042-3.042,3.042h-5.655
		c-1.68,0-3.042-1.362-3.042-3.042v-5.654c0-1.68,1.362-3.041,3.042-3.041h5.655c1.68,0,3.042,1.361,3.042,3.041V800.981z
		 M414.458,765.31c0,1.68-1.362,3.041-3.042,3.041h-5.655c-1.68,0-3.042-1.361-3.042-3.041v-5.654c0-1.68,1.362-3.042,3.042-3.042
		h5.655c1.68,0,3.042,1.362,3.042,3.042V765.31z M414.458,729.638c0,1.68-1.362,3.041-3.042,3.041h-5.655
		c-1.68,0-3.042-1.361-3.042-3.041v-5.654c0-1.68,1.362-3.043,3.042-3.043h5.655c1.68,0,3.042,1.363,3.042,3.043V729.638z
		 M414.458,693.965c0,1.681-1.362,3.042-3.042,3.042h-5.655c-1.68,0-3.042-1.361-3.042-3.042v-5.653c0-1.68,1.362-3.043,3.042-3.043
		h5.655c1.68,0,3.042,1.363,3.042,3.043V693.965z M414.458,658.293c0,1.681-1.362,3.042-3.042,3.042h-5.655
		c-1.68,0-3.042-1.361-3.042-3.042v-5.654c0-1.68,1.362-3.042,3.042-3.042h5.655c1.68,0,3.042,1.362,3.042,3.042V658.293z
		 M414.458,622.62c0,1.682-1.362,3.043-3.042,3.043h-5.655c-1.68,0-3.042-1.361-3.042-3.043v-5.653c0-1.68,1.362-3.042,3.042-3.042
		h5.655c1.68,0,3.042,1.362,3.042,3.042V622.62z M725.775,815.988v0.007h-0.007v-0.007H725.775z"/>
	<path fill="none" stroke="#231F20" d="M389.569,609.509v11.606 M389.569,642.239v-11.606 M389.569,663.363v-11.606
		 M389.569,684.487v-11.606 M389.569,705.611v-11.606 M389.569,715.129v11.607 M389.569,747.86v-11.606 M389.569,768.984v-11.606
		 M389.569,790.108v-11.606 M389.569,811.232v-11.606 M389.569,832.356V820.75 M389.569,853.48v-11.606 M389.569,874.604v-11.606
		 M389.569,895.729v-11.606 M389.569,905.246v11.607 M389.569,926.37v11.607 M389.569,959.102v-11.606 M389.569,980.226v-11.606
		 M389.569,1001.35v-11.606 M389.569,1022.474v-11.606"/>
</g>
</svg>
